STARTFONT 2.1
FONT -MIT-25FG1 KST-Medium-R-Normal--25-9-200-200-P-14-ISO8859-1
SIZE 9 200 200
FONTBOUNDINGBOX 14 25 0 -5
STARTPROPERTIES 17
ADD_STYLE_NAME ""
AVERAGE_WIDTH 14
CHARSET_ENCODING "1"
CHARSET_REGISTRY "ISO8859"
DEFAULT_CHAR 0
FAMILY "25FG1 KST"
FONT_ASCENT 20
FONT_DESCENT 5
FOUNDRY "MIT"
PIXEL_SIZE 25
POINT_SIZE 9
RESOLUTION_X 200
RESOLUTION_Y 200
SETWIDTH_NAME "Normal"
SLANT "R"
SPACING "P"
WEIGHT_NAME "Medium"
ENDPROPERTIES
CHARS 96
STARTCHAR char32
ENCODING 32
SWIDTH 1554 0
DWIDTH 14 0
BBX 14 25 0 -5
BITMAP
0000
0000
0000
0000
0000
0000
0000
0000
0000
0000
0000
0000
0000
0000
0000
0000
0000
0000
0000
0000
0000
0000
0000
0000
0000
ENDCHAR
STARTCHAR char33
ENCODING 33
SWIDTH 1554 0
DWIDTH 14 0
BBX 14 25 0 -5
BITMAP
0000
0300
0300
0300
0300
0300
0300
0300
0300
0300
0300
0300
0300
0300
0300
0000
0000
0300
0780
0300
0000
0000
0000
0000
0000
ENDCHAR
STARTCHAR char34
ENCODING 34
SWIDTH 1554 0
DWIDTH 14 0
BBX 14 25 0 -5
BITMAP
0000
0000
0C60
0C60
0C60
0C60
0C60
0C60
0C60
0000
0000
0000
0000
0000
0000
0000
0000
0000
0000
0000
0000
0000
0000
0000
0000
ENDCHAR
STARTCHAR char35
ENCODING 35
SWIDTH 1554 0
DWIDTH 14 0
BBX 14 25 0 -5
BITMAP
0000
0000
0000
0C60
0C60
0C60
0C60
0C60
7FFC
7FFC
0C60
0C60
0C60
7FFC
7FFC
0C60
0C60
0C60
0C60
0C60
0C60
0000
0000
0000
0000
ENDCHAR
STARTCHAR char36
ENCODING 36
SWIDTH 1554 0
DWIDTH 14 0
BBX 14 25 0 -5
BITMAP
0000
0000
0200
0200
0F80
1FC0
3260
6200
6200
3200
1E00
0780
02E0
0230
0230
0230
6260
3FC0
1F80
0200
0200
0000
0000
0000
0000
ENDCHAR
STARTCHAR char37
ENCODING 37
SWIDTH 1554 0
DWIDTH 14 0
BBX 14 25 0 -5
BITMAP
0000
0000
0000
1C30
3630
2260
2260
36C0
1CC0
0180
0180
0300
0300
0600
0600
0CE0
0DB0
1910
1910
31B0
30E0
0000
0000
0000
0000
ENDCHAR
STARTCHAR char38
ENCODING 38
SWIDTH 1554 0
DWIDTH 14 0
BBX 14 25 0 -5
BITMAP
0000
0000
0000
0000
0000
0E00
1F00
3B80
3180
3B80
1F00
0E00
1F00
3BB0
71F0
60E0
61C0
73E0
7F70
3E30
0000
0000
0000
0000
0000
ENDCHAR
STARTCHAR char39
ENCODING 39
SWIDTH 1554 0
DWIDTH 14 0
BBX 14 25 0 -5
BITMAP
0000
00C0
0180
0300
0600
0C00
1800
3000
0000
0000
0000
0000
0000
0000
0000
0000
0000
0000
0000
0000
0000
0000
0000
0000
0000
ENDCHAR
STARTCHAR char40
ENCODING 40
SWIDTH 1554 0
DWIDTH 14 0
BBX 14 25 0 -5
BITMAP
0180
0180
0300
0300
0600
0600
0C00
0C00
0C00
1800
1800
1800
1800
1800
1800
1800
0C00
0C00
0C00
0600
0600
0300
0300
0180
0000
ENDCHAR
STARTCHAR char41
ENCODING 41
SWIDTH 1554 0
DWIDTH 14 0
BBX 14 25 0 -5
BITMAP
0C00
0C00
0600
0600
0300
0300
0180
0180
0180
00C0
00C0
00C0
00C0
00C0
00C0
00C0
0180
0180
0180
0300
0300
0600
0600
0C00
0000
ENDCHAR
STARTCHAR char42
ENCODING 42
SWIDTH 1554 0
DWIDTH 14 0
BBX 14 25 0 -5
BITMAP
0000
0000
0000
0000
0000
0400
0600
4620
6660
36C0
1F80
0F00
1F80
39C0
30C0
6060
4020
0000
0000
0000
0000
0000
0000
0000
0000
ENDCHAR
STARTCHAR char43
ENCODING 43
SWIDTH 1554 0
DWIDTH 14 0
BBX 14 25 0 -5
BITMAP
0000
0000
0000
0000
0000
0000
0000
0600
0600
0600
0600
0600
FFF0
FFF0
0600
0600
0600
0600
0600
0000
0000
0000
0000
0000
0000
ENDCHAR
STARTCHAR char44
ENCODING 44
SWIDTH 1554 0
DWIDTH 14 0
BBX 14 25 0 -5
BITMAP
0000
0000
0000
0000
0000
0000
0000
0000
0000
0000
0000
0000
0000
0000
0000
0000
0000
0300
0780
0780
0180
0300
0600
0000
0000
ENDCHAR
STARTCHAR char45
ENCODING 45
SWIDTH 1554 0
DWIDTH 14 0
BBX 14 25 0 -5
BITMAP
0000
0000
0000
0000
0000
0000
0000
0000
0000
0000
0000
3FE0
3FE0
0000
0000
0000
0000
0000
0000
0000
0000
0000
0000
0000
0000
ENDCHAR
STARTCHAR char46
ENCODING 46
SWIDTH 1554 0
DWIDTH 14 0
BBX 14 25 0 -5
BITMAP
0000
0000
0000
0000
0000
0000
0000
0000
0000
0000
0000
0000
0000
0000
0000
0000
0000
0300
0780
0300
0000
0000
0000
0000
0000
ENDCHAR
STARTCHAR char47
ENCODING 47
SWIDTH 1554 0
DWIDTH 14 0
BBX 14 25 0 -5
BITMAP
0000
0018
0030
0030
0060
0060
00C0
00C0
0180
0180
0300
0300
0600
0600
0C00
0C00
1800
1800
3000
3000
6000
6000
0000
0000
0000
ENDCHAR
STARTCHAR char48
ENCODING 48
SWIDTH 1554 0
DWIDTH 14 0
BBX 14 25 0 -5
BITMAP
0000
0000
0F80
1FC0
18C0
3060
3060
3060
3060
3060
3060
3060
3060
3060
3060
3060
3060
18C0
1FC0
0F80
0000
0000
0000
0000
0000
ENDCHAR
STARTCHAR char49
ENCODING 49
SWIDTH 1554 0
DWIDTH 14 0
BBX 14 25 0 -5
BITMAP
0000
0000
0F00
1F00
0300
0300
0300
0300
0300
0300
0300
0300
0300
0300
0300
0300
0300
0300
1FE0
1FE0
0000
0000
0000
0000
0000
ENDCHAR
STARTCHAR char50
ENCODING 50
SWIDTH 1554 0
DWIDTH 14 0
BBX 14 25 0 -5
BITMAP
0000
0000
07C0
0FE0
1870
3030
3030
0030
0070
00E0
01C0
0380
0700
0E00
1C00
3800
3000
3000
3FF0
3FF0
0000
0000
0000
0000
0000
ENDCHAR
STARTCHAR char51
ENCODING 51
SWIDTH 1554 0
DWIDTH 14 0
BBX 14 25 0 -5
BITMAP
0000
0000
0F80
1FC0
18E0
0060
0060
00E0
01C0
0F80
0FC0
00E0
0060
0030
0030
0030
3060
38E0
1FC0
0F80
0000
0000
0000
0000
0000
ENDCHAR
STARTCHAR char52
ENCODING 52
SWIDTH 1554 0
DWIDTH 14 0
BBX 14 25 0 -5
BITMAP
0000
0000
01C0
03C0
06C0
06C0
0CC0
0CC0
18C0
18C0
30C0
30C0
60C0
7FF0
7FF0
00C0
00C0
00C0
00C0
00C0
0000
0000
0000
0000
0000
ENDCHAR
STARTCHAR char53
ENCODING 53
SWIDTH 1554 0
DWIDTH 14 0
BBX 14 25 0 -5
BITMAP
8000
0000
1FF0
1FF0
1800
1800
1800
1800
1800
1FC0
1FE0
1870
0030
0030
0030
0030
3060
38C0
1FC0
0F80
0000
0000
0000
0000
0000
ENDCHAR
STARTCHAR char54
ENCODING 54
SWIDTH 1554 0
DWIDTH 14 0
BBX 14 25 0 -5
BITMAP
0000
0000
03C0
07E0
0C60
1860
1800
3000
3000
3780
3FC0
3860
3030
3030
3030
3030
3070
38E0
1FC0
0F80
0000
0000
0000
0000
0000
ENDCHAR
STARTCHAR char55
ENCODING 55
SWIDTH 1554 0
DWIDTH 14 0
BBX 14 25 0 -5
BITMAP
0000
0000
1FF0
1FF0
0030
0030
0060
0060
00C0
00C0
0180
0180
0300
0300
0600
0600
0C00
0C00
1800
1800
0000
0000
0000
0000
0000
ENDCHAR
STARTCHAR char56
ENCODING 56
SWIDTH 1554 0
DWIDTH 14 0
BBX 14 25 0 -5
BITMAP
0000
0000
0F80
1FC0
38E0
3060
3060
3060
18C0
1FC0
3FE0
7070
6030
6030
6030
6030
6030
7070
3FE0
1FC0
0000
0000
0000
0000
0000
ENDCHAR
STARTCHAR char57
ENCODING 57
SWIDTH 1554 0
DWIDTH 14 0
BBX 14 25 0 -5
BITMAP
0000
0000
0F80
1FC0
38C0
3060
3060
3060
3060
38E0
1FE0
0F60
0060
0060
0060
0060
0060
3060
3FC0
1F00
0000
0000
0000
0000
0000
ENDCHAR
STARTCHAR char58
ENCODING 58
SWIDTH 1554 0
DWIDTH 14 0
BBX 14 25 0 -5
BITMAP
0000
0000
0000
0000
0000
0000
0000
0000
0300
0780
0300
0000
0000
0000
0000
0000
0000
0300
0780
0300
0000
0000
0000
0000
0000
ENDCHAR
STARTCHAR char59
ENCODING 59
SWIDTH 1554 0
DWIDTH 14 0
BBX 14 25 0 -5
BITMAP
0000
0000
0000
0000
0000
0000
0000
0000
0300
0780
0300
0000
0000
0000
0000
0000
0000
0300
0780
0780
0180
0300
0600
0000
0000
ENDCHAR
STARTCHAR char60
ENCODING 60
SWIDTH 1554 0
DWIDTH 14 0
BBX 14 25 0 -5
BITMAP
0000
0000
0000
0018
0030
0060
00C0
0180
0300
0600
0C00
1800
1800
0C00
0600
0300
0180
00C0
0060
0030
0018
0000
0000
0000
0000
ENDCHAR
STARTCHAR char61
ENCODING 61
SWIDTH 1554 0
DWIDTH 14 0
BBX 14 25 0 -5
BITMAP
0000
0000
0000
0000
0000
0000
0000
0000
0000
1FF0
1FF0
0000
0000
0000
1FF0
1FF0
0000
0000
0000
0000
0000
0000
0000
0000
0000
ENDCHAR
STARTCHAR char62
ENCODING 62
SWIDTH 1554 0
DWIDTH 14 0
BBX 14 25 0 -5
BITMAP
0000
0000
0000
3000
1800
0C00
0600
0300
0180
00C0
0060
0030
0030
0060
00C0
0180
0300
0600
0C00
1800
6000
0000
0000
0000
0000
ENDCHAR
STARTCHAR char63
ENCODING 63
SWIDTH 1554 0
DWIDTH 14 0
BBX 14 25 0 -5
BITMAP
0000
0000
0780
0FC0
1CE0
1870
0030
0070
00E0
01C0
0380
0700
0600
0600
0600
0000
0000
0600
0F00
0600
0000
0000
0000
0000
0000
ENDCHAR
STARTCHAR char64
ENCODING 64
SWIDTH 1554 0
DWIDTH 14 0
BBX 14 25 0 -5
BITMAP
0000
0000
0000
0000
0F80
1FC0
38E0
3030
31F0
3230
3230
3230
3230
3230
3230
31E0
3000
3000
3800
1FF0
0FF0
0000
0000
0000
0000
ENDCHAR
STARTCHAR char65
ENCODING 65
SWIDTH 1554 0
DWIDTH 14 0
BBX 14 25 0 -5
BITMAP
0000
0000
0700
0700
0D80
0D80
0D80
0D80
18C0
18C0
18C0
18C0
3FE0
3FE0
3060
7070
6030
6030
C018
C018
0000
0000
0000
0000
0000
ENDCHAR
STARTCHAR char66
ENCODING 66
SWIDTH 1554 0
DWIDTH 14 0
BBX 14 25 0 -5
BITMAP
0000
0000
3F00
3F80
30C0
30C0
30C0
30C0
30C0
3F80
3FC0
30C0
3060
3030
3030
3030
3060
30E0
3FC0
3F80
0000
0000
0000
0000
0000
ENDCHAR
STARTCHAR char67
ENCODING 67
SWIDTH 1554 0
DWIDTH 14 0
BBX 14 25 0 -5
BITMAP
0000
0000
07C0
0FE0
1C70
3830
7000
6000
6000
6000
6000
6000
6000
6000
6000
7000
3830
1C70
0FE0
07C0
0000
0000
0000
0000
0000
ENDCHAR
STARTCHAR char68
ENCODING 68
SWIDTH 1554 0
DWIDTH 14 0
BBX 14 25 0 -5
BITMAP
0000
0000
3F00
3FC0
3060
3030
3030
3030
3030
3030
3030
3030
3030
3030
3030
3030
3030
3060
3FC0
3F00
0000
0000
0000
0000
0000
ENDCHAR
STARTCHAR char69
ENCODING 69
SWIDTH 1554 0
DWIDTH 14 0
BBX 14 25 0 -5
BITMAP
0000
0000
3FE0
3FE0
3000
3000
3000
3000
3000
3FC0
3FC0
3000
3000
3000
3000
3000
3000
3000
3FF0
3FF0
0000
0000
0000
0000
0000
ENDCHAR
STARTCHAR char70
ENCODING 70
SWIDTH 1554 0
DWIDTH 14 0
BBX 14 25 0 -5
BITMAP
0000
0000
3FE0
3FE0
3000
3000
3000
3000
3000
3FC0
3FC0
3000
3000
3000
3000
3000
3000
3000
3000
3000
0000
0000
0000
0000
0000
ENDCHAR
STARTCHAR char71
ENCODING 71
SWIDTH 1554 0
DWIDTH 14 0
BBX 14 25 0 -5
BITMAP
0000
0000
07C0
0FE0
1C70
3030
6000
6000
6000
6000
6000
63F0
63F0
6030
6030
6030
6030
7070
3FF0
1FB0
0000
0000
0000
0000
0000
ENDCHAR
STARTCHAR char72
ENCODING 72
SWIDTH 1554 0
DWIDTH 14 0
BBX 14 25 0 -5
BITMAP
0000
0000
3030
3030
3030
3030
3030
3030
3030
3FF0
3FF0
3030
3030
3030
3030
3030
3030
3030
3030
3030
0000
0000
0000
0000
0000
ENDCHAR
STARTCHAR char73
ENCODING 73
SWIDTH 1554 0
DWIDTH 14 0
BBX 14 25 0 -5
BITMAP
0000
0000
0FC0
0FC0
0300
0300
0300
0300
0300
0300
0300
0300
0300
0300
0300
0300
0300
0300
0FC0
0FC0
0000
0000
0000
0000
0000
ENDCHAR
STARTCHAR char74
ENCODING 74
SWIDTH 1554 0
DWIDTH 14 0
BBX 14 25 0 -5
BITMAP
0000
0000
07F8
07F8
0060
0060
0060
0060
0060
0060
0060
0060
0060
0060
3060
3060
30E0
39C0
1F80
0F00
0000
0000
0000
0000
0000
ENDCHAR
STARTCHAR char75
ENCODING 75
SWIDTH 1554 0
DWIDTH 14 0
BBX 14 25 0 -5
BITMAP
0000
0000
3010
3030
3070
30E0
31C0
3380
3700
3E00
3C00
3C00
3E00
3700
3380
31C0
30E0
3070
3038
3018
0000
0000
0000
0000
0000
ENDCHAR
STARTCHAR char76
ENCODING 76
SWIDTH 1554 0
DWIDTH 14 0
BBX 14 25 0 -5
BITMAP
0000
0000
3000
3000
3000
3000
3000
3000
3000
3000
3000
3000
3000
3000
3000
3000
3000
3000
3FF0
3FF0
0000
0000
0000
0000
0000
ENDCHAR
STARTCHAR char77
ENCODING 77
SWIDTH 1554 0
DWIDTH 14 0
BBX 14 25 0 -5
BITMAP
0000
0000
6018
7038
7038
7878
7878
7CF8
6CD8
6CD8
6798
6798
6318
6018
6018
6018
6018
6018
6018
6018
0000
0000
0000
0000
0000
ENDCHAR
STARTCHAR char78
ENCODING 78
SWIDTH 1554 0
DWIDTH 14 0
BBX 14 25 0 -5
BITMAP
0000
0000
3830
3830
3C30
3C30
3E30
3630
3730
3330
3330
3330
31B0
31F0
30F0
30F0
3070
3070
3030
3030
0000
0000
0000
0000
0000
ENDCHAR
STARTCHAR char79
ENCODING 79
SWIDTH 1554 0
DWIDTH 14 0
BBX 14 25 0 -5
BITMAP
0000
0000
0780
0FC0
1CE0
3870
3030
6018
6018
6018
6018
6018
6018
6018
6018
3030
3870
1CE0
0FC0
0780
0000
0000
0000
0000
0000
ENDCHAR
STARTCHAR char80
ENCODING 80
SWIDTH 1554 0
DWIDTH 14 0
BBX 14 25 0 -5
BITMAP
0000
0000
3F80
3FE0
3070
3030
3030
3030
3070
30E0
3FC0
3F80
3000
3000
3000
3000
3000
3000
3000
3000
0000
0000
0000
0000
0000
ENDCHAR
STARTCHAR char81
ENCODING 81
SWIDTH 1554 0
DWIDTH 14 0
BBX 14 25 0 -5
BITMAP
0000
0000
0780
0FC0
1CE0
3870
3030
6018
6018
6018
6018
6018
6018
6018
6018
3030
3870
1CE0
0FC0
0780
01C0
00E0
0060
0000
0000
ENDCHAR
STARTCHAR char82
ENCODING 82
SWIDTH 1554 0
DWIDTH 14 0
BBX 14 25 0 -5
BITMAP
0000
0000
3F80
3FE0
3070
3030
3030
3030
3070
30E0
3FC0
3F80
3700
3380
31C0
30E0
3070
3038
3018
3018
0000
0000
0000
0000
0000
ENDCHAR
STARTCHAR char83
ENCODING 83
SWIDTH 1554 0
DWIDTH 14 0
BBX 14 25 0 -5
BITMAP
0000
0000
0F80
1FC0
38E0
3060
3000
3800
1C00
0E00
0780
03C0
01E0
0070
0030
0030
0070
70E0
7FC0
3F80
0000
0000
0000
0000
0000
ENDCHAR
STARTCHAR char84
ENCODING 84
SWIDTH 1554 0
DWIDTH 14 0
BBX 14 25 0 -5
BITMAP
0000
0000
7FF8
7FF8
0300
0300
0300
0300
0300
0300
0300
0300
0300
0300
0300
0300
0300
0300
0300
0300
0000
0000
0000
0000
0000
ENDCHAR
STARTCHAR char85
ENCODING 85
SWIDTH 1554 0
DWIDTH 14 0
BBX 14 25 0 -5
BITMAP
0000
0000
3030
3030
3030
3030
3030
3030
3030
3030
3030
3030
3030
3030
3030
3030
3030
3870
1FE0
0FC0
0000
0000
0000
0000
0000
ENDCHAR
STARTCHAR char86
ENCODING 86
SWIDTH 1554 0
DWIDTH 14 0
BBX 14 25 0 -5
BITMAP
0000
0000
6018
6018
7038
7038
6030
3070
3060
3060
3060
18C0
18C0
18C0
0D80
0D80
0D80
0F80
0700
0700
0000
0000
0000
0000
0000
ENDCHAR
STARTCHAR char87
ENCODING 87
SWIDTH 1554 0
DWIDTH 14 0
BBX 14 25 0 -5
BITMAP
0000
0000
6018
6018
6018
6018
6018
6018
6018
6018
7238
7238
3730
3730
37B0
3FF0
1CE0
1860
1860
1860
0000
0000
0000
0000
0000
ENDCHAR
STARTCHAR char88
ENCODING 88
SWIDTH 1554 0
DWIDTH 14 0
BBX 14 25 0 -5
BITMAP
0000
0000
6018
7038
6030
3060
3060
38E0
18C0
1DC0
0F80
0700
0F80
0D80
1DC0
38E0
3060
7070
6038
6018
0000
0000
0000
0000
0000
ENDCHAR
STARTCHAR char89
ENCODING 89
SWIDTH 1554 0
DWIDTH 14 0
BBX 14 25 0 -5
BITMAP
0000
0000
6018
6018
7038
3030
1860
1CE0
0FC0
0780
0300
0300
0300
0300
0300
0300
0300
0300
0300
0300
0000
0000
0000
0000
0000
ENDCHAR
STARTCHAR char90
ENCODING 90
SWIDTH 1554 0
DWIDTH 14 0
BBX 14 25 0 -5
BITMAP
0000
0000
3FF0
3FF0
0030
0060
0060
00C0
00C0
0180
0180
0300
0300
0600
0600
0C00
0C00
1800
3FF8
3FF8
0000
0000
0000
0000
0000
ENDCHAR
STARTCHAR char91
ENCODING 91
SWIDTH 1554 0
DWIDTH 14 0
BBX 14 25 0 -5
BITMAP
3FC0
3FC0
3000
3000
3000
3000
3000
3000
3000
3000
3000
3000
3000
3000
3000
3000
3000
3000
3000
3000
3000
3FC0
3FC0
0000
0000
ENDCHAR
STARTCHAR char92
ENCODING 92
SWIDTH 1554 0
DWIDTH 14 0
BBX 14 25 0 -5
BITMAP
0000
3000
3000
1800
1800
0C00
0C00
0600
0600
0300
0300
0180
0180
00C0
00C0
0060
0060
0030
0030
0018
0018
0008
0000
0000
0000
ENDCHAR
STARTCHAR char93
ENCODING 93
SWIDTH 1554 0
DWIDTH 14 0
BBX 14 25 0 -5
BITMAP
1FE0
1FE0
0060
0060
0060
0060
0060
0060
0060
0060
0060
0060
0060
0060
0060
0060
0060
0060
0060
0060
0060
1FE0
1FE0
0000
0000
ENDCHAR
STARTCHAR char94
ENCODING 94
SWIDTH 1554 0
DWIDTH 14 0
BBX 14 25 0 -5
BITMAP
0000
0000
0300
0300
0780
0CC0
0CC0
1860
1860
3030
3030
0000
0000
0000
0000
0000
0000
0000
0000
0000
0000
0000
0000
0000
0000
ENDCHAR
STARTCHAR char95
ENCODING 95
SWIDTH 1554 0
DWIDTH 14 0
BBX 14 25 0 -5
BITMAP
0000
0000
0000
0000
0000
0000
0000
0000
0000
0000
0000
0000
0000
0000
0000
0000
0000
0000
0000
0000
0000
0000
0000
FFFC
FFFC
ENDCHAR
STARTCHAR char96
ENCODING 96
SWIDTH 1554 0
DWIDTH 14 0
BBX 14 25 0 -5
BITMAP
0000
6000
3000
1800
0C00
0600
0300
0180
0000
0000
0000
0000
0000
0000
0000
0000
0000
0000
0000
0000
0000
0000
0000
0000
0000
ENDCHAR
STARTCHAR char97
ENCODING 97
SWIDTH 1554 0
DWIDTH 14 0
BBX 14 25 0 -5
BITMAP
0000
0000
0000
0000
0000
0000
0000
0F80
1FC0
1860
0060
0F60
1FE0
38E0
3060
3060
3060
38E0
1FF0
0FB8
0000
0000
0000
0000
0000
ENDCHAR
STARTCHAR char98
ENCODING 98
SWIDTH 1554 0
DWIDTH 14 0
BBX 14 25 0 -5
BITMAP
0000
0000
3000
3000
3000
3000
3000
3780
3FC0
38E0
3070
3030
3030
3030
3030
3030
3070
38E0
3FC0
3780
0000
0000
0000
0000
0000
ENDCHAR
STARTCHAR char99
ENCODING 99
SWIDTH 1554 0
DWIDTH 14 0
BBX 14 25 0 -5
BITMAP
0000
0000
0000
0000
0000
0000
0000
07E0
0FF0
1C30
3800
3000
3000
3000
3000
3000
3800
1C30
0FF0
07E0
0000
0000
0000
0000
0000
ENDCHAR
STARTCHAR char100
ENCODING 100
SWIDTH 1554 0
DWIDTH 14 0
BBX 14 25 0 -5
BITMAP
0000
0000
0060
0060
0060
0060
0060
0F60
1FE0
38E0
3060
3060
3060
3060
3060
3060
3060
38E0
1FE0
0F60
0000
0000
0000
0000
0000
ENDCHAR
STARTCHAR char101
ENCODING 101
SWIDTH 1554 0
DWIDTH 14 0
BBX 14 25 0 -5
BITMAP
0000
0000
0000
0000
0000
0000
0000
0F80
1FC0
38E0
3070
3030
3FF0
3FF0
3000
3000
3000
3870
1FE0
0FC0
0000
0000
0000
0000
0000
ENDCHAR
STARTCHAR char102
ENCODING 102
SWIDTH 1554 0
DWIDTH 14 0
BBX 14 25 0 -5
BITMAP
0000
0000
07E0
0FF0
0C30
0C00
0C00
0C00
3F80
3F80
0C00
0C00
0C00
0C00
0C00
0C00
0C00
0C00
0C00
0C00
0000
0000
0000
0000
0000
ENDCHAR
STARTCHAR char103
ENCODING 103
SWIDTH 1554 0
DWIDTH 14 0
BBX 14 25 0 -5
BITMAP
0000
0000
0000
0000
0000
0000
0000
0F30
1FF0
3870
3030
3030
3030
3030
3030
3030
3030
3870
1FF0
0F30
0030
0030
0070
30E0
1FC0
ENDCHAR
STARTCHAR char104
ENCODING 104
SWIDTH 1554 0
DWIDTH 14 0
BBX 14 25 0 -5
BITMAP
0000
0000
3000
3000
3000
3000
3000
33C0
3FE0
3870
3030
3030
3030
3030
3030
3030
3030
3030
3030
3030
0000
0000
0000
0000
0000
ENDCHAR
STARTCHAR char105
ENCODING 105
SWIDTH 1554 0
DWIDTH 14 0
BBX 14 25 0 -5
BITMAP
0000
0000
0000
00C0
00C0
0000
0000
0FC0
0FC0
00C0
00C0
00C0
00C0
00C0
00C0
00C0
00C0
00C0
00C0
00C0
0000
0000
0000
0000
0000
ENDCHAR
STARTCHAR char106
ENCODING 106
SWIDTH 1554 0
DWIDTH 14 0
BBX 14 25 0 -5
BITMAP
0000
0000
0000
0000
0060
0060
0000
0000
07E0
07E0
0060
0060
0060
0060
0060
0060
0060
0060
0060
3060
3860
1FE0
07C0
0000
0000
ENDCHAR
STARTCHAR char107
ENCODING 107
SWIDTH 1554 0
DWIDTH 14 0
BBX 14 25 0 -5
BITMAP
0000
0000
1800
1800
1800
1800
1800
1800
1860
18E0
19C0
1B80
1F00
1E00
1F00
1B80
19C0
18E0
1870
1818
0000
0000
0000
0000
0000
ENDCHAR
STARTCHAR char108
ENCODING 108
SWIDTH 1554 0
DWIDTH 14 0
BBX 14 25 0 -5
BITMAP
0000
0000
0F80
0F80
0180
0180
0180
0180
0180
0180
0180
0180
0180
0180
0180
0180
0180
0180
0180
0180
0000
0000
0000
0000
0000
ENDCHAR
STARTCHAR char109
ENCODING 109
SWIDTH 1554 0
DWIDTH 14 0
BBX 14 25 0 -5
BITMAP
0000
0000
0000
0000
0000
0000
0000
CEE0
7FF0
77B8
6318
6318
6318
6318
6318
6318
6318
6318
6318
6318
0000
0000
0000
0000
0000
ENDCHAR
STARTCHAR char110
ENCODING 110
SWIDTH 1554 0
DWIDTH 14 0
BBX 14 25 0 -5
BITMAP
0000
0000
0000
0000
0000
0000
0000
33C0
3FE0
3870
3030
3030
3030
3030
3030
3030
3030
3030
3030
3030
0000
0000
0000
0000
0000
ENDCHAR
STARTCHAR char111
ENCODING 111
SWIDTH 1554 0
DWIDTH 14 0
BBX 14 25 0 -5
BITMAP
0000
0000
0000
0000
0000
0000
0000
0FC0
1FE0
3870
3030
3030
3030
3030
3030
3030
3030
3870
1FE0
0FC0
0000
0000
0000
0000
0000
ENDCHAR
STARTCHAR char112
ENCODING 112
SWIDTH 1554 0
DWIDTH 14 0
BBX 14 25 0 -5
BITMAP
0000
0000
0000
0000
0000
0000
0000
33C0
3FE0
3870
3030
3030
3030
3030
3030
3030
3030
3860
3FE0
33C0
3000
3000
3000
3000
3000
ENDCHAR
STARTCHAR char113
ENCODING 113
SWIDTH 1554 0
DWIDTH 14 0
BBX 14 25 0 -5
BITMAP
0000
0000
0000
0000
0000
0000
0000
0F30
1FF0
3870
3030
3030
3030
3030
3030
3030
3030
3870
1FF0
0F30
0030
0030
0030
0030
0030
ENDCHAR
STARTCHAR char114
ENCODING 114
SWIDTH 1554 0
DWIDTH 14 0
BBX 14 25 0 -5
BITMAP
0000
0000
0000
0000
0000
0000
0000
19E0
1FF0
1E30
1C30
1800
1800
1800
1800
1800
1800
1800
1800
1800
0000
0000
0000
0000
0000
ENDCHAR
STARTCHAR char115
ENCODING 115
SWIDTH 1554 0
DWIDTH 14 0
BBX 14 25 0 -5
BITMAP
0000
0000
0000
0000
0000
0000
0000
07C0
1FE0
1860
1800
1E00
0F80
03C0
01E0
00E0
0060
3060
3FC0
1F80
0000
0000
0000
0000
0000
ENDCHAR
STARTCHAR char116
ENCODING 116
SWIDTH 1554 0
DWIDTH 14 0
BBX 14 25 0 -5
BITMAP
0000
0000
0000
0600
0600
0600
3FC0
3FC0
0600
0600
0600
0600
0600
0600
0600
0600
0610
0630
07F0
03E0
0000
0000
0000
0000
0000
ENDCHAR
STARTCHAR char117
ENCODING 117
SWIDTH 1554 0
DWIDTH 14 0
BBX 14 25 0 -5
BITMAP
0000
0000
0000
0000
0000
0000
0000
3030
3030
3030
3030
3030
3030
3030
3030
3030
3030
3870
1FF0
0F30
0000
0000
0000
0000
0000
ENDCHAR
STARTCHAR char118
ENCODING 118
SWIDTH 1554 0
DWIDTH 14 0
BBX 14 25 0 -5
BITMAP
0000
0000
0000
0000
0000
0000
0000
6030
6030
3060
3060
3060
18C0
18C0
18C0
0D80
0D80
0F80
0700
0700
0000
0000
0000
0000
0000
ENDCHAR
STARTCHAR char119
ENCODING 119
SWIDTH 1554 0
DWIDTH 14 0
BBX 14 25 0 -5
BITMAP
0000
0000
0000
0000
0000
0000
0000
6030
6030
6030
6030
6230
6730
7770
3760
3760
3DE0
1DC0
18C0
18C0
0000
0000
0000
0000
0000
ENDCHAR
STARTCHAR char120
ENCODING 120
SWIDTH 1554 0
DWIDTH 14 0
BBX 14 25 0 -5
BITMAP
0000
0000
0000
0000
0000
0000
0000
6030
7070
3060
18C0
0D80
0F80
0700
0700
0D80
18C0
38E0
7070
6030
0000
0000
0000
0000
0000
ENDCHAR
STARTCHAR char121
ENCODING 121
SWIDTH 1554 0
DWIDTH 14 0
BBX 14 25 0 -5
BITMAP
0000
0000
0000
0000
0000
0000
0000
6018
3030
3030
1860
1860
0C60
0EC0
06C0
07C0
0380
0380
0300
0300
6700
6600
7E00
3C00
0000
ENDCHAR
STARTCHAR char122
ENCODING 122
SWIDTH 1554 0
DWIDTH 14 0
BBX 14 25 0 -5
BITMAP
0000
0000
0000
0000
0000
0000
0000
1FF0
1FF0
0030
0060
00C0
0180
0300
0600
0C00
1800
3000
3FF0
3FF0
0000
0000
0000
0000
0000
ENDCHAR
STARTCHAR char123
ENCODING 123
SWIDTH 1554 0
DWIDTH 14 0
BBX 14 25 0 -5
BITMAP
0000
0000
01C0
0300
0600
0600
0600
0600
0600
0600
0C00
1800
3000
1800
0C00
0600
0600
0600
0600
0600
0600
0300
01C0
0000
0000
ENDCHAR
STARTCHAR char124
ENCODING 124
SWIDTH 1554 0
DWIDTH 14 0
BBX 14 25 0 -5
BITMAP
0000
0300
0300
0300
0300
0300
0300
0300
0300
0300
0300
0300
0300
0300
0300
0300
0300
0300
0300
0300
0300
0300
0300
0300
0000
ENDCHAR
STARTCHAR char125
ENCODING 125
SWIDTH 1554 0
DWIDTH 14 0
BBX 14 25 0 -5
BITMAP
0000
0000
0C00
0600
0300
0300
0300
0300
0300
0300
0180
00C0
0060
00C0
0180
0300
0300
0300
0300
0300
0300
0600
0C00
0000
0000
ENDCHAR
STARTCHAR char126
ENCODING 126
SWIDTH 1554 0
DWIDTH 14 0
BBX 14 25 0 -5
BITMAP
0000
0000
0000
0000
0000
0000
0000
0000
0000
1C18
3F30
67E0
C1C0
0000
0000
0000
0000
0000
0000
0000
0000
0000
0000
0000
0000
ENDCHAR
STARTCHAR char127
ENCODING 127
SWIDTH 1554 0
DWIDTH 14 0
BBX 14 25 0 -5
BITMAP
0000
0000
0000
0000
F000
8000
E000
8E00
9100
9100
1100
0E70
0088
0088
0088
0070
0000
0000
0000
0000
0000
0000
0000
0000
0000
ENDCHAR
ENDFONT
